<?xml version="1.0" encoding="UTF-8" standalone="no"?>
<svg
   xmlns:dc="http://purl.org/dc/elements/1.1/"
   xmlns:cc="http://creativecommons.org/ns#"
   xmlns:rdf="http://www.w3.org/1999/02/22-rdf-syntax-ns#"
   xmlns:svg="http://www.w3.org/2000/svg"
   xmlns="http://www.w3.org/2000/svg"
   xmlns:sodipodi="http://sodipodi.sourceforge.net/DTD/sodipodi-0.dtd"
   xmlns:inkscape="http://www.inkscape.org/namespaces/inkscape"
   width="15.180627mm"
   height="13.745409mm"
   viewBox="0 0 15.180627 13.745409"
   version="1.1"
   id="svg2795"
   inkscape:version="1.0.1 (3bc2e813f5, 2020-09-07)"
   sodipodi:docname="target.svg">
  <defs
     id="defs2789">
    <clipPath
       clipPathUnits="userSpaceOnUse"
       id="clipPath2132">
      <path
         d="M 0,500 H 1000 V 0 H 0 Z"
         id="path2130" />
    </clipPath>
  </defs>
  <sodipodi:namedview
     id="base"
     pagecolor="#ffffff"
     bordercolor="#666666"
     borderopacity="1.0"
     inkscape:pageopacity="0.0"
     inkscape:pageshadow="2"
     inkscape:zoom="0.35"
     inkscape:cx="85.830647"
     inkscape:cy="268.83273"
     inkscape:document-units="mm"
     inkscape:current-layer="layer1"
     inkscape:document-rotation="0"
     showgrid="false"
     inkscape:window-width="1431"
     inkscape:window-height="1033"
     inkscape:window-x="64"
     inkscape:window-y="0"
     inkscape:window-maximized="0"
     fit-margin-top="0"
     fit-margin-left="0"
     fit-margin-right="0"
     fit-margin-bottom="0" />
  <metadata
     id="metadata2792">
    <rdf:RDF>
      <cc:Work
         rdf:about="">
        <dc:format>image/svg+xml</dc:format>
        <dc:type
           rdf:resource="http://purl.org/dc/dcmitype/StillImage" />
        <dc:title></dc:title>
      </cc:Work>
    </rdf:RDF>
  </metadata>
  <g
     inkscape:label="Layer 1"
     inkscape:groupmode="layer"
     id="layer1"
     transform="translate(-83.123975,-77.038007)">
    <g
       id="g2128"
       clip-path="url(#clipPath2132)"
       transform="matrix(0.35277777,0,0,-0.35277777,-210.63478,176.30599)"
       style="fill:#ffffff">
      <g
         id="g2134"
         transform="translate(851.225,276.7782)"
         style="fill:#ffffff">
        <path
           d="m 0,0 c -8.728,0 -15.829,-7.1 -15.829,-15.828 0,-8.728 7.101,-15.829 15.829,-15.829 8.728,0 15.828,7.101 15.828,15.829 C 15.828,-7.1 8.728,0 0,0 m 0,-34.352 c -10.214,0 -18.523,8.31 -18.523,18.524 0,10.213 8.309,18.522 18.523,18.522 10.214,0 18.522,-8.309 18.522,-18.522 0,-10.214 -8.308,-18.524 -18.522,-18.524"
           style="fill:#ffffff;fill-opacity:1;fill-rule:nonzero;stroke:none"
           id="path2136" />
      </g>
      <g
         id="g2138"
         transform="translate(851.225,271.0555)"
         style="fill:#ffffff">
        <path
           d="m 0,0 c -5.573,0 -10.106,-4.533 -10.106,-10.105 0,-5.573 4.533,-10.107 10.106,-10.107 5.572,0 10.105,4.534 10.105,10.107 C 10.105,-4.533 5.572,0 0,0 m 0,-22.906 c -7.058,0 -12.801,5.742 -12.801,12.801 0,7.058 5.743,12.799 12.801,12.799 7.059,0 12.8,-5.741 12.8,-12.799 0,-7.059 -5.741,-12.801 -12.8,-12.801"
           style="fill:#ffffff;fill-opacity:1;fill-rule:nonzero;stroke:none"
           id="path2140" />
      </g>
      <g
         id="g2142"
         transform="translate(851.225,265.9666)"
         style="fill:#ffffff">
        <path
           d="m 0,0 c -2.767,0 -5.018,-2.251 -5.018,-5.017 0,-2.766 2.251,-5.017 5.018,-5.017 2.766,0 5.017,2.251 5.017,5.017 C 5.017,-2.251 2.766,0 0,0 m 0,-12.729 c -4.252,0 -7.712,3.46 -7.712,7.712 0,4.252 3.46,7.711 7.712,7.711 4.252,0 7.711,-3.459 7.711,-7.711 0,-4.252 -3.459,-7.712 -7.711,-7.712"
           style="fill:#ffffff;fill-opacity:1;fill-rule:nonzero;stroke:none"
           id="path2144" />
      </g>
      <g
         id="g2146"
         transform="translate(851.2269,259.6034)"
         style="fill:#ffffff">
        <path
           d="m 0,0 c -0.404,0 -0.805,0.182 -1.07,0.526 -0.454,0.589 -0.342,1.435 0.248,1.889 l 17.175,13.201 c 0.591,0.454 1.436,0.339 1.889,-0.247 0.454,-0.59 0.342,-1.435 -0.247,-1.89 L 0.819,0.278 C 0.574,0.091 0.285,0 0,0"
           style="fill:#ffffff;fill-opacity:1;fill-rule:nonzero;stroke:none"
           id="path2148" />
      </g>
      <g
         id="g2150"
         transform="translate(866.5219,275.6756)"
         style="fill:#ffffff">
        <path
           d="m 0,0 -1.058,-3.733 3.81,0.185 1.265,1.245 -1.43,-0.2 c -0.48,-0.068 -0.965,0.131 -1.26,0.52 -0.296,0.387 -0.357,0.905 -0.163,1.352 L 1.93,1.127 Z m -2.865,-6.518 c -0.409,0 -0.799,0.188 -1.056,0.51 -0.269,0.339 -0.358,0.788 -0.24,1.205 l 1.717,6.06 c 0.094,0.335 0.315,0.621 0.617,0.797 L 4.134,5.531 C 4.638,5.823 5.271,5.762 5.707,5.373 6.144,4.986 6.281,4.363 6.048,3.829 L 4.597,0.499 7.678,0.932 C 8.254,1.008 8.816,0.714 9.072,0.193 9.33,-0.327 9.224,-0.953 8.811,-1.361 L 4.277,-5.828 C 4.04,-6.061 3.728,-6.199 3.397,-6.215 L -2.8,-6.516 c -0.022,-0.002 -0.045,-0.002 -0.065,-0.002"
           style="fill:#ffffff;fill-opacity:1;fill-rule:nonzero;stroke:none"
           id="path2152" />
      </g>
    </g>
  </g>
</svg>
