<?xml version="1.0" encoding="UTF-8" standalone="no"?>
<svg
   xmlns:dc="http://purl.org/dc/elements/1.1/"
   xmlns:cc="http://creativecommons.org/ns#"
   xmlns:rdf="http://www.w3.org/1999/02/22-rdf-syntax-ns#"
   xmlns:svg="http://www.w3.org/2000/svg"
   xmlns="http://www.w3.org/2000/svg"
   xmlns:sodipodi="http://sodipodi.sourceforge.net/DTD/sodipodi-0.dtd"
   xmlns:inkscape="http://www.inkscape.org/namespaces/inkscape"
   height="86.800003"
   version="1.1"
   viewBox="0 0 127.3 86.800003"
   width="127.3"
   xml:space="preserve"
   id="svg9"
   sodipodi:docname="vision.svg"
   inkscape:version="1.0.1 (3bc2e813f5, 2020-09-07)"><metadata
     id="metadata13"><rdf:RDF><cc:Work
         rdf:about=""><dc:format>image/svg+xml</dc:format><dc:type
           rdf:resource="http://purl.org/dc/dcmitype/StillImage" /><dc:title></dc:title></cc:Work></rdf:RDF></metadata><sodipodi:namedview
     pagecolor="#ffffff"
     bordercolor="#666666"
     borderopacity="1"
     objecttolerance="10"
     gridtolerance="10"
     guidetolerance="10"
     inkscape:pageopacity="0"
     inkscape:pageshadow="2"
     inkscape:window-width="1920"
     inkscape:window-height="1051"
     id="namedview11"
     showgrid="false"
     fit-margin-top="0"
     fit-margin-left="0"
     fit-margin-right="0"
     fit-margin-bottom="0"
     inkscape:zoom="7.2131148"
     inkscape:cx="72.9"
     inkscape:cy="39.409091"
     inkscape:window-x="-9"
     inkscape:window-y="-9"
     inkscape:window-maximized="1"
     inkscape:current-layer="svg9" /><style
     type="text/css"
     id="style2">
<![CDATA[
	.st0{fill:#EF3E42;}
	.st1{fill:#FFFFFF;}
	.st2{fill:none;}
	.st3{fill-rule:evenodd;clip-rule:evenodd;fill:#FFFFFF;}
]]>
</style><defs
     id="defs4" /><path
     d="M 63.6,86.8 C 34.4,86.8 11.1,69.5 0,43.4 11.2,17.3 34.5,0 63.6,0 92.7,0 116.1,17.3 127.3,43.4 116.1,69.5 92.7,86.8 63.6,86.8 Z m 0,-10.4 c 23.1,0 43,-13.5 52.3,-33 -9.3,-19.5 -29.2,-33 -52.3,-33 -23,0 -42.9,13.5 -52.2,33 9.2,19.5 29.1,33 52.2,33 z M 39.4,43.4 C 39.4,30 50.2,19.2 63.5,19.2 76.9,19.2 87.7,30.1 87.7,43.4 87.7,56.8 76.8,67.6 63.5,67.6 50.2,67.6 39.4,56.7 39.4,43.4 Z M 65,37.3 c 0,4.2 3.3,7.6 7.6,7.6 4.1,0 7.5,-3.4 7.5,-7.6 0,-4.1 -3.3,-7.5 -7.5,-7.5 -4.2,0 -7.6,3.3 -7.6,7.5 z"
     id="path6"
     style="fill:#ffffff" /><rect
     class="st2"
     height="122"
     id="_x3C_Slice_x3E__100_"
     width="150"
     x="-2.0999999"
     y="-10.5" /></svg>
